<svg width="178" height="170" viewBox="0 0 178 170" fill="none" xmlns="http://www.w3.org/2000/svg">
<circle cx="82.5" cy="87.5" r="80.5" stroke="black" stroke-width="3" stroke-linejoin="round"/>
<circle cx="82.0997" cy="87.0995" r="74.7935" fill="#242424" stroke="black"/>
<circle cx="82.0997" cy="87.0995" r="62.4776" fill="#F9F9F9"/>
<path d="M153.421 61.083C152.786 58.756 149.022 56.573 146.754 56.573C145.109 56.573 143.425 56.4532 141.808 56.8127C140.777 57.0417 140.735 57.6472 140.283 58.3813C139.683 59.3554 139.779 60.6709 139.684 61.7693C139.619 62.5173 139.476 63.1442 139.498 63.9153C139.529 64.9549 140.087 65.9526 140.087 66.9656" stroke="#F9F9F9" stroke-width="3" stroke-linecap="round"/>
<path d="M154.077 62.3091C153.7 61.9141 153.405 61.4376 152.925 61.1564C152.456 60.8822 152.122 60.4788 151.661 60.2011C150.414 59.4499 148.719 59.5354 147.316 59.5354C146.59 59.5354 145.899 59.7573 145.171 59.7573C144.944 59.7573 144.733 59.8293 144.517 59.8929C143.825 60.0969 143.136 60.3022 142.462 60.5616C140.425 61.3451 138.116 62.3143 136.948 64.2938C136.729 64.6657 136.879 64.2886 136.957 64.0966C137.461 62.8639 138.334 61.7729 139.204 60.7805C139.782 60.1218 140.427 59.6491 141.136 59.1563C141.465 58.9282 141.781 58.6837 142.163 58.5492C142.414 58.4604 143.235 58.1108 143.513 58.2718C143.831 58.4559 142.061 59.9701 141.981 60.05C140.998 61.0329 140.022 62.1791 139.549 63.5048C139.224 64.4169 139.097 65.3687 138.908 66.3125C138.815 66.7801 138.881 65.9159 138.893 65.8317C139.028 64.8603 139.54 63.8742 139.931 62.9933C140.35 62.0508 140.802 61.1232 141.263 60.2011" stroke="#F9F9F9" stroke-width="3" stroke-linecap="round"/>
<path d="M148.142 57.4828C146.797 58.027 145.295 58.4941 143.846 58.6355C143.645 58.655 143.465 58.6645 143.836 58.6386C145.131 58.5482 146.419 58.4106 147.717 58.3519C148.544 58.3145 151.006 58.2217 150.201 58.4136C149.758 58.5191 149.24 58.5153 148.789 58.5615C148.24 58.6177 147.694 58.6478 147.143 58.6478" stroke="#F9F9F9" stroke-width="3" stroke-linecap="round"/>
<path d="M137.007 51.3399C134.676 48.1734 132.391 44.976 130.097 41.7827" stroke="#F9F9F9" stroke-width="3" stroke-linecap="round"/>
<path d="M150.24 55.4568C148.469 53.4774 146.958 51.245 145.094 49.3468C144.042 48.275 143.676 46.7463 142.823 45.4912C142.421 44.8988 141.85 44.4742 141.337 43.9882C141.249 43.9054 140.85 43.6819 141.01 43.6942C141.717 43.7485 142.448 44.2831 143.068 44.5764C144.299 45.1582 145.33 45.6365 146.164 46.7492C146.705 47.4704 146.608 48.3383 147.079 49.0609C147.572 49.8168 148.011 50.8958 148.239 51.7565C148.277 51.9 148.267 52.4394 148.541 52.3609C148.806 52.2854 148.081 51.1362 148.027 51.0458C147.275 49.7925 146.484 48.5446 145.592 47.3863C144.509 45.9791 143.17 44.8406 142.154 43.4001" stroke="#F9F9F9" stroke-width="3" stroke-linecap="round"/>
<path d="M154.127 62.8691C153.722 62.7447 153.526 62.2213 153.079 62.2213C152.872 62.2213 152.795 62.0961 152.641 61.9757C152.452 61.8286 152.184 61.7694 151.953 61.728C151.708 61.6844 151.497 61.6023 151.262 61.5354C150.959 61.4486 150.649 61.4194 150.339 61.3618C150.084 61.3143 149.826 61.2671 149.573 61.2115C149.372 61.1674 149.132 61.0711 148.925 61.0844C148.591 61.106 148.231 61.2365 147.896 61.2877C147.484 61.3508 147.073 61.4482 146.658 61.493C146.481 61.5122 146.3 61.4878 146.122 61.5015C145.743 61.5306 145.36 61.6131 144.987 61.6836C144.571 61.7624 144.144 61.7901 143.726 61.8635C143.328 61.9334 142.937 62.1327 142.57 62.2975C142.219 62.4549 141.818 62.6194 141.604 62.9474C141.286 63.4377 140.836 63.7804 140.463 64.2155C140.111 64.6272 139.861 65.092 139.638 65.5832C139.466 65.9609 139.265 66.4078 139.265 66.8322C139.265 67.0237 139.443 67.036 139.57 67.1455C139.707 67.2637 139.79 67.5485 139.828 67.7214C139.859 67.8587 139.828 67.7657 139.845 67.6705C139.882 67.4717 139.951 67.3147 139.951 67.1074C139.951 66.8542 139.964 66.6697 140.074 66.43C140.295 65.9493 140.543 65.4775 140.794 65.0116C140.811 64.9787 140.899 64.8666 140.904 64.8041C140.922 64.579 141.129 64.2806 141.255 64.1055C141.647 63.5612 142.045 63.0535 142.593 62.6574C142.922 62.4194 143.259 62.1972 143.609 61.9927" stroke="#F9F9F9" stroke-width="3" stroke-linecap="round"/>
<path d="M141.773 69.8782C143.776 57.8632 155.791 65.0722 154.589 64.6717" stroke="#F9F9F9"/>
<path d="M151.916 62.5262C151.879 62.5228 151.651 62.4499 151.747 62.4499C151.914 62.4499 152.034 62.5236 152.183 62.5939C152.219 62.6111 152.524 62.6941 152.416 62.6553C151.931 62.4809 151.377 62.3156 150.87 62.2255C150.24 62.1134 149.601 62.0109 148.965 61.9334C148.375 61.8615 147.774 61.7869 147.187 61.908C147.008 61.945 146.831 61.9906 146.649 62.0138C146.5 62.0329 146.369 62.0172 146.249 62.1112C145.874 62.4043 145.361 62.4382 144.93 62.6172C144.533 62.7822 144.15 62.8875 143.783 63.1232C143.394 63.3728 143.022 63.6012 142.584 63.7583C142.394 63.8267 142.201 64.0407 142.068 64.1901C141.79 64.5011 141.531 64.9032 141.342 65.272C141.04 65.86 140.598 66.3919 140.531 67.0609C140.503 67.343 140.522 67.6343 140.522 67.9183C140.522 67.9947 140.525 68.345 140.582 68.1998C140.706 67.8807 140.757 67.5387 140.865 67.2133C141.007 66.7892 141.042 66.3495 141.227 65.9388C141.478 65.3837 141.695 64.7686 142.03 64.2579C142.086 64.1725 142.162 63.9784 142.29 63.9784C142.337 63.9784 142.314 64.402 142.311 64.4484C142.286 64.8211 142.066 65.1411 141.97 65.4985C141.911 65.7204 141.829 65.9429 141.761 66.1632C141.736 66.2427 141.624 66.6312 141.691 66.3347C141.825 65.7372 142.004 65.152 142.169 64.5627C142.274 64.189 142.487 63.8239 142.542 63.4407" stroke="#F9F9F9" stroke-width="3" stroke-linecap="round"/>
<path d="M45.2539 39.0398C49.6594 23.0199 35.2415 26.4909 35.642 27.0249" stroke="#F9F9F9"/>
<path d="M48.0532 33.815C48.1036 33.1094 48.369 32.6906 48.8968 32.2684" stroke="#F9F9F9" stroke-width="3" stroke-linecap="round"/>
<path d="M49.6028 24.1748C49.4396 24.0972 47.3691 23.4284 47.3691 23.1737C47.3691 23.0101 48.514 23.454 48.6417 23.454" stroke="#F9F9F9" stroke-width="14" stroke-linecap="round"/>
<path d="M49.2827 24.5753C49.5024 24.7151 49.6174 25.1062 49.7588 25.3183C49.9379 25.587 50.064 25.8338 50.1993 26.1237C50.2167 26.161 50.3676 26.5648 50.3995 26.4529C50.4811 26.1674 50.5431 24.8352 50.2438 24.7354" stroke="#F9F9F9" stroke-width="14" stroke-linecap="round"/>
<path d="M48.7217 24.4151C49.0424 24.4953 49.0179 25.216 49.4425 25.216" stroke="#F9F9F9" stroke-width="14" stroke-linecap="round"/>
<path d="M46.3994 22.1726C46.0383 22.1601 45.6018 22.0964 45.2959 21.8878C45.1069 21.759 45.0185 21.5493 44.8154 21.4162C44.5899 21.2685 44.3095 21.0513 44.0367 21.0513C43.8032 21.0513 42.8393 20.8031 42.9555 20.5708" stroke="#F9F9F9" stroke-width="14" stroke-linecap="round"/>
<path d="M37.1089 20.0902C39.1311 20.0902 41.117 20.0902 43.1424 20.0902C43.3575 20.0902 44.0026 20.0902 43.7876 20.0902C43.4049 20.0902 43.0223 20.0902 42.6396 20.0902C41.8711 20.0902 41.1837 20.0101 40.4327 20.0101C40.0979 20.0101 39.0974 20.0693 39.4315 20.0902C39.8096 20.1138 40.1919 20.0762 40.5706 20.0902C40.8279 20.0997 40.9511 20.2899 41.1535 20.3349C41.3752 20.3842 41.7617 20.5037 41.9544 20.6108C42.33 20.8194 42.8924 20.5001 43.2759 20.7131C43.501 20.8382 43.4452 21.1257 43.6407 21.2293C43.8326 21.3309 44.0021 21.4517 44.237 21.4517" stroke="#F9F9F9" stroke-width="14" stroke-linecap="round"/>
<path d="M129.954 57.8221C139.216 55.9057 147.013 50.2981 156.633 49.8608C157.889 49.8037 159.16 49.9258 160.411 49.7644C161.764 49.5898 161.651 49.4144 162.03 50.7668C163.085 54.526 165.85 58.9819 168.642 61.7739C169.12 62.2517 169.73 62.5536 170.203 63.0269C170.291 63.1147 170.648 63.8402 170.82 63.6437C171.492 62.8761 165.36 59.0749 164.883 58.8438C158.008 55.5106 151.366 53.6447 143.948 52.0005C141.929 51.553 139.893 51.1836 137.876 50.7283C136.041 50.3138 138.684 50.5439 139.071 50.5548C147.414 50.7898 155.643 51.7154 163.861 53.1379C164.628 53.2706 165.595 53.7023 166.387 53.6583C167.077 53.62 162.572 51.346 162.57 51.3451C156.042 48.7391 149.24 46.8958 142.426 45.2151C136.488 43.7506 130.486 41.9177 124.421 41.0513C124.046 40.9978 121.525 41.1007 121.356 40.3959C121.085 39.2667 128.212 38.2545 128.797 38.1213C132.172 37.3525 135.584 36.7747 138.956 36.0008C139.023 35.9853 142.048 35.251 141.5 35.9815C140.514 37.2969 138.66 38.3954 137.471 39.5477C134.705 42.2303 131.739 44.8087 128.527 46.95C126.895 48.0382 125.079 48.7955 123.399 49.803C122.8 50.1624 121.542 50.3862 121.163 51.0174C121.102 51.119 121.402 50.9874 121.51 50.9403C123.071 50.2638 124.608 49.5062 126.137 48.762C131.279 46.2583 136.331 43.5773 141.481 41.0899C144.569 39.5987 147.701 38.261 150.772 36.8104C151.704 36.3706 152.281 36.2814 151.601 34.9213C150.927 33.5734 149.239 32.3454 148.112 31.4515C143.822 28.047 138.484 25.3548 133.038 24.5504C123.803 23.1864 115.388 26.6183 108.364 32.4539C106.749 33.7951 105.32 35.3162 103.814 36.7719C102.185 38.3471 105.556 35.4537 106.089 35.1526C112.336 31.6204 118.681 27.1323 125.693 25.2444C128.896 24.3821 130.626 25.4671 129.028 29.0612C128.184 30.9602 122.017 37.5412 119.428 35.6924C116.899 33.8853 125.196 33.0377 128.296 32.8009C130.592 32.6254 133.799 32.5515 136.161 32.7238C137.129 32.7944 139.719 33.1198 138.917 33.6683C137.506 34.6337 134.354 34.2348 132.768 34.3044C126.889 34.5626 120.898 34.9046 115.033 34.2659C114.285 34.1843 102.688 32.9366 103.255 30.9503C103.36 30.5829 104.201 30.1317 104.47 29.8708C105.959 28.4228 107.481 27.0514 109.135 25.7841C112.585 23.1404 116.241 20.9586 120.122 19.018C122.273 17.9425 124.702 16.9704 126.657 15.5481C127.53 14.9132 123.34 15.8144 123.168 15.8758C116.581 18.2307 110.534 22.5416 104.431 25.8998C99.9104 28.3874 95.3771 31.074 90.5903 33.0322C89.3294 33.548 86.152 34.7904 85.2314 33.0515C84.3047 31.3011 84.2036 29.0384 83.535 27.172C82.625 24.6314 80.7575 22.4196 78.4845 20.9649C73.9103 18.0374 66.9807 18.1245 61.7908 18.9601C59.3485 19.3534 58.1428 21.7887 56.0656 22.9311C54.068 24.0298 54.1033 22.6331 53.5403 20.9649C52.9387 19.1824 51.9988 17.5384 51.3813 15.7602C50.7114 13.8308 49.5308 7.87696 49.5308 9.9193C49.5308 11.5231 51.9039 14.3218 52.6536 15.5674C54.8258 19.1764 56.865 22.6133 58.6294 26.4395C60.644 30.8083 62.6133 35.504 65.7425 39.22C66.2078 39.7725 66.4721 39.7922 66.4558 39.008C66.4052 36.5783 65.4097 34.0636 64.7594 31.7599C63.5166 27.3568 62.3758 22.9409 61.2896 18.4975C60.813 16.5477 60.2091 14.9644 58.8607 13.4662C57.9055 12.4049 57.1978 11.4226 56.5668 10.1121C56.174 9.29618 55.7858 8.45855 55.3524 7.66392C54.8129 6.67491 56.1114 10.1167 56.162 10.2085C58.2679 14.033 60.6162 17.7275 62.7739 21.5239C64.5467 24.6432 65.7893 27.8199 67.304 31.0274C67.4195 31.272 67.8799 32.869 67.8437 31.837C67.7313 28.6318 67.0588 25.4371 66.8028 22.2372C66.4992 18.4424 65.7618 7.05692 65.7618 10.8639C65.7618 16.7728 67.907 22.5708 69.5786 28.1744C70.3484 30.7549 70.8291 33.447 71.6605 36.0008C72.334 38.0693 72.3545 36.2374 72.3545 35.2297C72.3545 27.4774 70.5174 19.4565 67.9208 12.1747C66.9843 9.54846 66.4218 8.55342 63.6414 8.0109C61.6747 7.62716 62.6136 8.2597 64.6052 8.35788C74.1124 8.82655 83.6583 8.46761 93.1734 8.56993C98.5219 8.62744 103.893 8.74944 109.058 10.2856C112.201 11.2204 115.207 12.5983 118.272 13.7554C119.115 14.0738 120.259 14.4255 120.874 15.1433C121.595 15.9848 117.412 16.3874 117.134 16.4541C105.93 19.1475 94.6124 21.9555 83.1495 23.3167C82.6313 23.3782 77.6094 23.8718 78.9664 23.2781C82.8737 21.5687 87.514 21.9633 91.3614 20.0011C93.2482 19.0388 96.3639 17.2072 92.4024 17.3794C84.4418 17.7255 76.4952 17.3907 68.557 16.9168C67.7758 16.8701 66.3224 17.1556 65.5691 16.8011C65.4031 16.723 69.1387 15.7706 69.1931 15.7602C81.5971 13.3872 94.5852 12.3143 107.207 13.2542C107.292 13.2605 114.106 13.7701 113.568 14.7963C113.001 15.88 111.075 16.5586 110.06 16.9168C104.358 18.929 98.3893 20.2828 92.5566 21.8516C88.818 22.8572 84.8727 23.5133 82.0314 26.2853C77.5293 30.6776 72.6498 35.2525 67.4389 38.7959C66.187 39.6472 66.3658 38.0057 66.8028 37.3502" stroke="#F9F9F9" stroke-width="14" stroke-linecap="round"/>
<path d="M161.691 64.5202C160.545 63.8127 159.485 62.9812 158.39 62.1986C157.76 61.748 157.265 61.366 156.805 60.7455C156.602 60.471 156.261 59.7462 155.912 59.63" stroke="#F9F9F9" stroke-width="10" stroke-linecap="round"/>
<path d="M153.388 59.0647C156.901 60.5217 158.257 61.7215 158.795 62.4289C159.085 62.8104 160.237 64.2979 160.597 64.6717" stroke="#F9F9F9"/>
<path d="M48.444 92.66C50.236 91.1107 51.6453 89.8413 52.672 88.852C53.7173 87.844 54.5853 86.7987 55.276 85.716C55.9667 84.6333 56.312 83.5507 56.312 82.468C56.312 81.348 56.0413 80.4707 55.5 79.836C54.9773 79.2013 54.1467 78.884 53.008 78.884C51.9067 78.884 51.048 79.2387 50.432 79.948C49.8347 80.6387 49.5173 81.572 49.48 82.748H46.4C46.456 80.62 47.0907 78.996 48.304 77.876C49.536 76.7373 51.0947 76.168 52.98 76.168C55.0147 76.168 56.6013 76.728 57.74 77.848C58.8973 78.968 59.476 80.4613 59.476 82.328C59.476 83.672 59.1307 84.9693 58.44 86.22C57.768 87.452 56.956 88.5627 56.004 89.552C55.0707 90.5227 53.876 91.652 52.42 92.94L51.16 94.06H60.036V96.72H46.428V94.396L48.444 92.66ZM76.0002 79.332H66.6202V84.904C67.0122 84.3813 67.5908 83.9427 68.3562 83.588C69.1402 83.2333 69.9708 83.056 70.8482 83.056C72.4162 83.056 73.6855 83.392 74.6562 84.064C75.6455 84.736 76.3455 85.5853 76.7562 86.612C77.1855 87.6387 77.4002 88.7213 77.4002 89.86C77.4002 91.2413 77.1295 92.4733 76.5882 93.556C76.0655 94.62 75.2722 95.46 74.2082 96.076C73.1628 96.692 71.8748 97 70.3442 97C68.3095 97 66.6762 96.496 65.4442 95.488C64.2122 94.48 63.4748 93.1453 63.2322 91.484H66.3402C66.5455 92.3613 67.0028 93.0613 67.7122 93.584C68.4215 94.088 69.3082 94.34 70.3722 94.34C71.6975 94.34 72.6868 93.9387 73.3402 93.136C74.0122 92.3333 74.3482 91.2693 74.3482 89.944C74.3482 88.6 74.0122 87.5733 73.3402 86.864C72.6682 86.136 71.6788 85.772 70.3722 85.772C69.4575 85.772 68.6828 86.0053 68.0482 86.472C67.4322 86.92 66.9842 87.536 66.7042 88.32H63.6802V76.532H76.0002V79.332ZM82.431 97.196C81.8523 97.196 81.367 97 80.975 96.608C80.583 96.216 80.387 95.7307 80.387 95.152C80.387 94.5733 80.583 94.088 80.975 93.696C81.367 93.304 81.8523 93.108 82.431 93.108C82.991 93.108 83.467 93.304 83.859 93.696C84.251 94.088 84.447 94.5733 84.447 95.152C84.447 95.7307 84.251 96.216 83.859 96.608C83.467 97 82.991 97.196 82.431 97.196ZM82.431 85.436C81.8523 85.436 81.367 85.24 80.975 84.848C80.583 84.456 80.387 83.9707 80.387 83.392C80.387 82.8133 80.583 82.328 80.975 81.936C81.367 81.544 81.8523 81.348 82.431 81.348C82.991 81.348 83.467 81.544 83.859 81.936C84.251 82.328 84.447 82.8133 84.447 83.392C84.447 83.9707 84.251 84.456 83.859 84.848C83.467 85.24 82.991 85.436 82.431 85.436ZM87.5863 86.528C87.5863 83.2987 88.1276 80.7787 89.2103 78.968C90.3116 77.1387 92.1969 76.224 94.8663 76.224C97.5356 76.224 99.4116 77.1387 100.494 78.968C101.596 80.7787 102.146 83.2987 102.146 86.528C102.146 89.7947 101.596 92.352 100.494 94.2C99.4116 96.0293 97.5356 96.944 94.8663 96.944C92.1969 96.944 90.3116 96.0293 89.2103 94.2C88.1276 92.352 87.5863 89.7947 87.5863 86.528ZM99.0103 86.528C99.0103 85.016 98.9076 83.7373 98.7023 82.692C98.5156 81.6467 98.1236 80.7973 97.5263 80.144C96.9289 79.472 96.0423 79.136 94.8663 79.136C93.6903 79.136 92.8036 79.472 92.2063 80.144C91.6089 80.7973 91.2076 81.6467 91.0023 82.692C90.8156 83.7373 90.7223 85.016 90.7223 86.528C90.7223 88.096 90.8156 89.412 91.0023 90.476C91.1889 91.54 91.5809 92.3987 92.1783 93.052C92.7943 93.7053 93.6903 94.032 94.8663 94.032C96.0423 94.032 96.9289 93.7053 97.5263 93.052C98.1423 92.3987 98.5436 91.54 98.7303 90.476C98.9169 89.412 99.0103 88.096 99.0103 86.528ZM105.524 86.528C105.524 83.2987 106.065 80.7787 107.148 78.968C108.249 77.1387 110.134 76.224 112.804 76.224C115.473 76.224 117.349 77.1387 118.432 78.968C119.533 80.7787 120.084 83.2987 120.084 86.528C120.084 89.7947 119.533 92.352 118.432 94.2C117.349 96.0293 115.473 96.944 112.804 96.944C110.134 96.944 108.249 96.0293 107.148 94.2C106.065 92.352 105.524 89.7947 105.524 86.528ZM116.948 86.528C116.948 85.016 116.845 83.7373 116.64 82.692C116.453 81.6467 116.061 80.7973 115.464 80.144C114.866 79.472 113.98 79.136 112.804 79.136C111.628 79.136 110.741 79.472 110.144 80.144C109.546 80.7973 109.145 81.6467 108.94 82.692C108.753 83.7373 108.66 85.016 108.66 86.528C108.66 88.096 108.753 89.412 108.94 90.476C109.126 91.54 109.518 92.3987 110.116 93.052C110.732 93.7053 111.628 94.032 112.804 94.032C113.98 94.032 114.866 93.7053 115.464 93.052C116.08 92.3987 116.481 91.54 116.668 90.476C116.854 89.412 116.948 88.096 116.948 86.528Z" fill="black"/>
<path d="M159.396 70.6791C160.197 67.0746 163.4 69.4776 162.599 70.2786" stroke="#F9F9F9"/>
<path d="M159 73.5C159.5 67.5 164.5 70.5 164.5 72" stroke="#F9F9F9"/>
<path d="M141.5 70.5C145 57.5 155.667 65.5 155.5 65.5" stroke="#F9F9F9"/>
</svg>
