<svg width="50" height="50" viewBox="0 0 50 50" fill="none" xmlns="http://www.w3.org/2000/svg">
<path d="M49.0476 22.7742L27.2122 0.946143C26.9135 0.646257 26.5587 0.408306 26.1679 0.245943C25.7771 0.0835793 25.3581 0 24.9349 0C24.5118 0 24.0928 0.0835793 23.702 0.245943C23.3112 0.408306 22.9563 0.646257 22.6577 0.946143L18.1293 5.48878L23.8809 11.2289C24.5593 10.9991 25.2885 10.9644 25.9856 11.1288C26.6827 11.2931 27.3197 11.6498 27.8241 12.1584C28.3285 12.667 28.68 13.307 28.8387 14.0056C28.9974 14.7042 28.9568 15.4333 28.7217 16.11L34.2521 21.6418C35.0791 21.3565 35.9789 21.3633 36.8015 21.6611C37.6241 21.9589 38.3198 22.5297 38.7727 23.2784C39.2255 24.0271 39.4082 24.9084 39.2903 25.7754C39.1723 26.6425 38.7609 27.4429 38.1245 28.0433C37.4881 28.6437 36.6652 29.0078 35.7929 29.0749C34.9207 29.1421 34.0518 28.9081 33.3311 28.4122C32.6103 27.9162 32.0813 27.1881 31.8321 26.3493C31.583 25.5105 31.6288 24.6117 31.9618 23.8025L26.7958 18.6351V32.237C27.5789 32.6267 28.2048 33.273 28.5694 34.0683C28.9339 34.8637 29.0149 35.7599 28.799 36.6077C28.5831 37.4555 28.0833 38.2038 27.3828 38.7277C26.6824 39.2517 25.8235 39.5198 24.9495 39.4872C24.0754 39.4547 23.2389 39.1236 22.5792 38.549C21.9196 37.9745 21.4767 37.1912 21.3244 36.3297C21.172 35.4681 21.3194 34.5804 21.742 33.8144C22.1646 33.0483 22.8368 32.4503 23.6467 32.1198V18.4008C23.1785 18.2097 22.7529 17.9277 22.3944 17.5711C22.0359 17.2144 21.7516 16.7903 21.558 16.3231C21.3644 15.8559 21.2653 15.3549 21.2664 14.8492C21.2676 14.3434 21.3689 13.8429 21.5646 13.3766L15.9041 7.71454L0.939384 22.6831C0.337849 23.2859 0 24.1028 0 24.9544C0 25.8061 0.337849 26.623 0.939384 27.2258L22.7878 49.0539C23.0865 49.3537 23.4413 49.5917 23.8321 49.7541C24.2229 49.9164 24.6419 50 25.0651 50C25.4882 50 25.9072 49.9164 26.298 49.7541C26.6888 49.5917 27.0437 49.3537 27.3423 49.0539L49.0606 27.3169C49.6622 26.7141 50 25.8972 50 25.0456C50 24.1939 49.6622 23.377 49.0606 22.7742" fill="#F05133"/>
</svg>
