<svg width="46" height="50" viewBox="0 0 46 50" fill="none" xmlns="http://www.w3.org/2000/svg">
<path d="M1.73417 0C1.27459 0 0.932209 0.374514 0.973029 0.832134L4.84717 44.2873C4.88799 44.745 5.2835 45.2201 5.72647 45.343L22.1664 49.9077C22.6093 50.0307 23.3338 50.0307 23.7768 49.908L40.2667 45.3358C40.7096 45.213 41.1056 44.738 41.1463 44.2803L45.0269 0.832134C45.068 0.374514 44.7252 0 44.2657 0H1.73417ZM36.7764 9.96627C36.7397 10.3745 36.6765 11.0832 36.6356 11.5409L36.5336 12.681C36.4925 13.1386 36.434 13.793 36.4031 14.135C36.3724 14.4772 36.3432 14.7572 36.3378 14.7572C36.3326 14.7572 35.9522 14.7572 35.4928 14.7572H23.8355C23.3759 14.7572 22.9961 14.7572 22.9911 14.7572C22.9861 14.7572 22.606 14.7572 22.1464 14.7572H16.0069C15.5473 14.7572 15.2049 15.1317 15.2458 15.5893L15.6039 19.5923C15.6447 20.0498 16.0543 20.4244 16.5137 20.4244H22.1465C22.6061 20.4244 22.9861 20.4244 22.9912 20.4244C22.9963 20.4244 23.3761 20.4244 23.8356 20.4244H33.5175C33.977 20.4244 34.6882 20.4244 35.0977 20.4244C35.507 20.4244 35.8118 20.7585 35.7747 21.1667C35.7374 21.5749 35.6737 22.2838 35.633 22.7413L34.4815 35.6467C34.4404 36.1044 34.3885 36.6891 34.3661 36.9461C34.3432 37.2029 33.9624 37.5136 33.5195 37.6364L23.8052 40.33C23.3623 40.4527 22.9944 40.5542 22.9875 40.5558C22.9807 40.5573 22.6129 40.4579 22.1698 40.3351L12.4452 37.6366C12.0023 37.5138 11.6066 37.0388 11.5659 36.5811L10.9399 29.5552C10.8991 29.0974 11.2418 28.7229 11.7014 28.7229H12.5889C13.0485 28.7229 13.8004 28.7229 14.2599 28.7229H15.5834C16.0429 28.7229 16.4521 29.0974 16.4932 29.5552L16.7387 32.3056C16.7796 32.7633 17.1758 33.2356 17.6195 33.3555L22.1683 34.5839C22.6117 34.7037 22.9764 34.8018 22.9784 34.8018C22.9805 34.8018 23.3449 34.7035 23.7886 34.5837L28.3456 33.3523C28.789 33.2325 29.1856 32.76 29.2267 32.3024L29.7209 26.792C29.762 26.3342 29.4196 25.9597 28.96 25.9597H23.8356C23.376 25.9597 22.9962 25.9597 22.9912 25.9597C22.9862 25.9597 22.6061 25.9597 22.1465 25.9597H11.4537C10.9941 25.9597 10.5849 25.5851 10.5441 25.1276L9.33157 11.541C9.29075 11.0833 9.22747 10.3748 9.19085 9.96637C9.15462 9.55816 9.50062 9.22408 9.96019 9.22408H22.1465C22.6061 9.22408 22.9861 9.22408 22.9912 9.22408C22.9963 9.22408 23.3761 9.22408 23.8356 9.22408H36.0071C36.4666 9.22388 36.8128 9.55787 36.7764 9.96627Z" fill="#DD512A"/>
</svg>
