<svg width="300" height="300" viewBox="0 0 300 300" fill="none" xmlns="http://www.w3.org/2000/svg">
<path d="M86.5 208.2H53.8C62.7746 198.565 65.2 182.4 64.3 178.2C61.9 174.6 59.8 142.5 61 128.1C62.2 113.7 73.2598 100.825 70 81C77.947 97.3254 81.4 112.8 80.5 126.9C79.7338 138.9 88.6804 149.924 91.3 162.9C93.4804 173.7 91.789 198.721 86.5 208.2Z" fill="#184129"/>
<path d="M70.592 202.327L54.2278 208.121C57.005 201.689 55.3432 193.138 54.1456 191.187C52.3042 189.803 45.5429 174.046 43.5818 166.598C41.6207 159.151 44.865 150.721 39.707 141.338C46.5882 148.133 51.0689 155.296 53.1268 162.541C54.8782 168.706 61.3165 172.66 64.9357 178.715C67.9481 183.756 71.5524 196.627 70.592 202.327Z" fill="#184129"/>
<path d="M74.0661 203.527L90.4306 209.321C87.6532 202.889 89.3152 194.338 90.5122 192.387C92.3542 191.003 99.115 175.246 101.076 167.798C103.037 160.351 99.793 151.921 104.951 142.538C98.0698 149.333 93.589 156.496 91.531 163.741C89.7796 169.906 83.3416 173.86 79.7224 179.915C76.7098 184.956 73.1058 197.827 74.0661 203.527Z" fill="#184129"/>
<path d="M53.3896 209.969C53.0011 208.804 53.8687 207.6 55.0973 207.6H89.7027C90.9309 207.6 91.7985 208.804 91.4103 209.969L82.4103 236.969C82.1649 237.704 81.4773 238.2 80.7027 238.2H64.0973C63.3225 238.2 62.6347 237.704 62.3896 236.969L53.3896 209.969Z" fill="#350600"/>
<path d="M105.5 156.6C110.017 152.585 132.282 147.457 136.7 147.6H165.2C169.618 147.457 191.883 152.585 196.4 156.6C201.114 160.79 207.603 177 208.4 180.9C209.197 184.8 215.954 207.559 218.9 221.4C218.289 231.482 214.663 233.822 208.4 238.2H93.5C87.2366 233.822 83.6108 231.482 83 221.4C85.946 207.559 92.7032 184.8 93.5 180.9C94.2968 177 100.786 160.79 105.5 156.6Z" fill="#220A55"/>
<path d="M136 143.7C136 143.7 137.2 150.9 139.3 156.6C141.4 162.3 161.2 162.1 162.7 156.6C164.2 151.1 164.8 143.7 164.8 143.7H136Z" fill="#F7C4A7"/>
<path d="M151 150.6C162.598 150.6 172 140.258 172 127.5C172 114.742 162.598 104.4 151 104.4C139.402 104.4 130 114.742 130 127.5C130 140.258 139.402 150.6 151 150.6Z" fill="#E8A985"/>
<path d="M150.4 149.4C163.323 149.4 173.8 137.043 173.8 121.8C173.8 106.557 163.323 94.2 150.4 94.2C137.477 94.2 127 106.557 127 121.8C127 137.043 137.477 149.4 150.4 149.4Z" fill="#F7C4A7"/>
<path d="M163.102 126.3C161.45 125.567 163.891 122.439 163.702 120.6C164.957 118.257 162.91 119.943 162.202 117.6C160.603 120.613 156.349 119.121 155.902 122.7C153.75 120.394 156.67 119.333 155.602 116.7C152.519 117.791 149.573 119.844 147.502 121.8C146.104 120.356 147.005 118.304 146.302 116.7C143.849 118.058 143.771 119.694 142.402 121.8C140.482 122.165 138.536 121.373 136.702 120.6C135.897 122.366 137.602 124.2 136.102 127.8C133.402 125.1 135.202 123.9 133.402 125.7C132.765 126.725 134.684 128.464 133.402 129.3C132.5 130.65 133.214 130.721 133.102 132.6C133.437 133.463 132.997 133.702 133.102 135C132.569 136.36 135.307 136.453 135.802 137.7C137.589 140.177 136.219 139.154 137.302 141.6C138.94 142.92 137.481 142.351 138.202 144.3H136.402C133.004 142.737 134.889 143.091 132.502 140.1C130.825 138 128.937 137.857 127.702 136.5C126.818 134.055 125.169 132.619 125.929 130.8C123.572 128.276 123.968 125.854 124.129 123C125.098 119.954 124.928 118.246 124.129 115.2C124.093 113.084 124.429 108.9 125.929 107.1C127.429 105.3 128.874 103.8 128.874 103.8L130.402 100.5C132.163 97.083 134.238 96.8376 138.229 94.8C139.647 95.3052 140.437 95.6082 142.129 94.8C144.507 93.8088 145.604 93 147.229 91.2C152.602 93.6 155.51 89.649 155.602 93.3C156.202 94.0998 157.462 93.6 157.702 93.6C157.942 93.6 160.402 93.9 160.402 91.8C160.402 89.7 161.606 93.84 160.702 94.8C162.369 95.5962 163.161 95.3136 164.54 94.8216L164.602 94.8C168.593 96.8376 170.34 98.283 172.102 101.7L174.202 104.7C174.202 104.7 173.911 107.714 175.402 109.5C176.892 111.286 174.802 116.4 177.802 113.1C178.402 116.1 176.533 119.654 177.502 122.7C177.663 125.554 176.602 127.8 177.202 131.4C176.602 133.5 175.985 131.955 175.102 134.4C173.866 135.757 174.502 136.5 173.002 138.6C170.614 141.591 171.202 139.8 169.702 141.9C169.702 141.9 165.502 144.9 166.102 143.7C166.702 142.5 167.602 141.3 167.602 141.3C168.377 139.063 169.102 140.4 168.802 138C170.431 136.101 168.238 137.687 168.802 135.3C168.242 132.254 168.997 133.546 170.002 130.5C168.761 129.751 171.202 128.4 169.702 128.1C168.581 126.48 168.385 125.238 168.502 123.3C167.332 124.13 163.194 124.84 163.102 126.3Z" fill="black"/>
<path d="M214.429 215.552C214.096 213.035 216.055 210.8 218.593 210.8H234.418C236.957 210.8 238.915 213.035 238.582 215.552L235.958 235.352C235.681 237.44 233.901 239 231.794 239H221.217C219.111 239 217.33 237.44 217.054 235.352L214.429 215.552Z" fill="#FF3717"/>
<path d="M235.716 216.135C237.168 219.205 239.637 220.766 240.114 222.298L240.007 229.918L235.474 233.282" stroke="#FF3717" stroke-width="3"/>
<path d="M285.6 238.2H14.4C13.0745 238.2 12 239.275 12 240.6V249.6C12 250.925 13.0745 252 14.4 252H285.6C286.926 252 288 250.925 288 249.6V240.6C288 239.275 286.926 238.2 285.6 238.2Z" fill="#D9D9D9"/>
<path d="M272.4 252H27V300H272.4V252Z" fill="#D9D9D9"/>
<path d="M272.4 252H27V258.6H272.4V252Z" fill="#C2C2C2"/>
<path d="M196.6 179H106.6C104.612 179 103 180.612 103 182.6V232.4C103 234.388 104.612 236 106.6 236H196.6C198.588 236 200.2 234.388 200.2 232.4V182.6C200.2 180.612 198.588 179 196.6 179Z" fill="#080808"/>
<path d="M200.812 232.17H102.188C101.532 232.17 101 232.713 101 233.382V237.018C101 237.687 101.532 238.23 102.188 238.23H200.812C201.468 238.23 202 237.687 202 237.018V233.382C202 232.713 201.468 232.17 200.812 232.17Z" fill="#080808"/>
<path d="M147.178 212.908L142 210.606L147.178 208.295V209.553L143.902 210.56L147.178 211.613V212.908Z" fill="#FF3717"/>
<path d="M148.559 213.571C148.024 213.571 147.583 213.503 147.235 213.366C146.887 213.223 146.614 213.015 146.415 212.742C146.222 212.462 146.086 212.12 146.005 211.716C145.924 211.306 145.884 210.834 145.884 210.3C145.884 209.734 145.927 209.246 146.014 208.836C146.107 208.42 146.257 208.078 146.462 207.811C146.673 207.538 146.946 207.336 147.282 207.205C147.624 207.068 148.043 207 148.54 207C148.795 207 149.059 207.016 149.333 207.047C149.612 207.071 149.876 207.106 150.125 207.149C149.957 207.106 150.38 207.193 150.125 207.149L150.74 208.286C150.566 208.255 150.355 208.227 150.106 208.202C149.864 208.178 149.615 208.159 149.36 208.146C149.106 208.128 148.876 208.119 148.671 208.119C148.36 208.119 148.105 208.159 147.906 208.24C147.714 208.32 147.565 208.451 147.459 208.631C147.36 208.805 147.291 209.032 147.254 209.312C147.217 209.585 147.198 209.914 147.198 210.3C147.198 210.79 147.232 211.201 147.301 211.53C147.375 211.853 147.515 212.092 147.72 212.248C147.931 212.403 148.233 212.481 148.624 212.481C148.724 212.481 148.829 212.478 148.941 212.471C149.059 212.465 149.171 212.456 149.277 212.443C149.388 212.431 149.482 212.419 149.556 212.406V211.017H148.801V210.039H150.777V213.329C150.641 213.348 150.476 213.372 150.283 213.403C150.091 213.428 149.889 213.453 149.677 213.478C149.472 213.503 149.27 213.525 149.072 213.543C148.879 213.562 148.708 213.571 148.559 213.571Z" fill="#FF3717"/>
<path d="M152.936 213.179C152.73 213.179 152.51 213.166 152.274 213.141C152.044 213.123 151.826 213.098 151.621 213.067C151.422 213.036 151.252 213.005 151.109 212.974L151.687 212.116C151.488 212.091 151.848 212.135 151.687 212.116C151.892 212.141 152.09 212.163 152.283 212.181C152.482 212.194 152.643 212.2 152.768 212.2C152.954 212.2 153.106 212.185 153.224 212.153C153.349 212.122 153.442 212.073 153.504 212.004C153.566 211.93 153.597 211.824 153.597 211.687C153.597 211.582 153.569 211.501 153.513 211.445C153.464 211.389 153.364 211.343 153.215 211.305C153.072 211.262 152.861 211.218 152.581 211.175C152.233 211.125 151.944 211.054 151.714 210.96C151.491 210.867 151.326 210.73 151.22 210.55C151.115 210.364 151.062 210.112 151.062 209.795C151.062 209.41 151.146 209.109 151.314 208.891C151.481 208.674 151.705 208.521 151.985 208.434C152.264 208.341 152.569 208.295 152.898 208.295C153.116 208.295 153.339 208.307 153.569 208.332C153.799 208.35 154.017 208.375 154.222 208.406C154.085 208.375 154.427 208.438 154.222 208.406L154.697 209.441C154.542 209.416 154.362 209.394 154.157 209.376C153.951 209.351 153.746 209.332 153.541 209.32C153.343 209.307 153.175 209.301 153.038 209.301C152.895 209.301 152.768 209.317 152.656 209.348C152.544 209.373 152.457 209.416 152.395 209.478C152.339 209.54 152.311 209.634 152.311 209.758C152.311 209.845 152.336 209.916 152.386 209.972C152.435 210.028 152.528 210.078 152.665 210.121C152.808 210.159 153.013 210.196 153.28 210.233C153.666 210.289 153.973 210.367 154.203 210.466C154.433 210.566 154.598 210.709 154.697 210.895C154.803 211.082 154.856 211.333 154.856 211.65C154.856 212.216 154.688 212.613 154.352 212.843C154.023 213.067 153.551 213.179 152.936 213.179Z" fill="#FF3717"/>
<path d="M154.826 214L153.651 213.692L156.354 207L157.529 207.308L154.826 214Z" fill="#FF3717"/>
<path d="M156.24 212.908V211.613L159.018 210.56L156.24 209.553V208.295L160.606 210.56L156.24 212.908Z" fill="#FF3717"/>
</svg>
