<svg width="514" height="374" viewBox="0 0 514 374" fill="none" xmlns="http://www.w3.org/2000/svg">
<g clip-path="url(#clip0_103_7)">
<path d="M148.203 216.716H92.1768C107.553 200.208 111.709 172.512 110.167 165.316C106.055 159.148 102.457 104.15 104.513 79.478C106.569 54.806 125.518 32.7461 119.933 -1.22003C133.549 26.7508 139.465 53.264 137.923 77.422C136.61 97.982 151.939 116.87 156.427 139.102C160.162 157.606 157.265 200.475 148.203 216.716Z" fill="#184129"/>
<path d="M120.948 206.654L92.9101 216.58C97.6684 205.561 94.8211 190.909 92.7694 187.567C89.6143 185.196 78.03 158.199 74.67 145.439C71.31 132.678 76.8686 118.236 68.0312 102.16C79.821 113.801 87.498 126.074 91.0238 138.486C94.0245 149.049 105.055 155.824 111.256 166.199C116.418 174.835 122.593 196.888 120.948 206.654Z" fill="#184129"/>
<path d="M126.9 208.71L154.938 218.636C150.18 207.617 153.027 192.965 155.078 189.623C158.234 187.252 169.818 160.255 173.178 147.495C176.538 134.734 170.979 120.292 179.817 104.216C168.027 115.857 160.35 128.13 156.824 140.542C153.823 151.105 142.792 157.88 136.592 168.255C131.43 176.891 125.255 198.944 126.9 208.71Z" fill="#184129"/>
<path d="M91.4741 219.748C90.8085 217.75 92.2948 215.688 94.3999 215.688H153.69C155.795 215.688 157.281 217.75 156.616 219.748L141.196 266.008C140.776 267.267 139.598 268.116 138.27 268.116H109.82C108.492 268.116 107.314 267.267 106.894 266.008L91.4741 219.748Z" fill="#350600"/>
<path d="M180.758 128.308C188.496 121.429 226.643 112.642 234.214 112.888H283.044C290.614 112.642 328.761 121.429 336.499 128.308C344.575 135.488 355.694 163.26 357.059 169.942C358.425 176.624 370.002 215.617 375.049 239.332C374.003 256.605 367.791 260.615 357.059 268.116H160.198C149.466 260.615 143.254 256.605 142.208 239.332C147.255 215.617 158.832 176.624 160.198 169.942C161.563 163.26 172.682 135.488 180.758 128.308Z" fill="#220A55"/>
<path d="M233.014 106.206C233.014 106.206 235.07 118.542 238.668 128.308C242.266 138.074 276.19 137.732 278.76 128.308C281.33 118.884 282.358 106.206 282.358 106.206H233.014Z" fill="#F7C4A7"/>
<path d="M258.713 118.028C278.585 118.028 294.693 100.309 294.693 78.4502C294.693 56.5919 278.585 38.8722 258.713 38.8722C238.842 38.8722 222.733 56.5919 222.733 78.4502C222.733 100.309 238.842 118.028 258.713 118.028Z" fill="#E8A985"/>
<path d="M257.686 115.972C279.828 115.972 297.778 94.8005 297.778 68.6841C297.778 42.5676 279.828 21.3961 257.686 21.3961C235.544 21.3961 217.594 42.5676 217.594 68.6841C217.594 94.8005 235.544 115.972 257.686 115.972Z" fill="#F7C4A7"/>
<path d="M279.448 76.394C276.617 75.1378 280.799 69.7788 280.476 66.628C282.626 62.6136 279.12 65.5023 277.906 61.488C275.167 66.6506 267.877 64.094 267.112 70.226C263.425 66.2754 268.428 64.4569 266.598 59.946C261.317 61.8149 256.269 65.3327 252.72 68.684C250.325 66.2096 251.869 62.6938 250.664 59.946C246.461 62.2734 246.327 65.0757 243.982 68.684C240.693 69.31 237.358 67.9521 234.216 66.628C232.837 69.6534 235.758 72.796 233.188 78.964C228.562 74.338 231.646 72.282 228.562 75.366C227.471 77.1218 230.759 80.101 228.562 81.534C227.018 83.847 228.241 83.9693 228.048 87.188C228.622 88.6673 227.868 89.0754 228.048 91.3C227.135 93.6294 231.826 93.7888 232.674 95.926C235.736 100.17 233.389 98.4168 235.244 102.608C238.051 104.87 235.551 103.894 236.786 107.234H233.702C227.88 104.556 231.11 105.163 227.02 100.038C224.147 96.44 220.912 96.1943 218.796 93.87C217.282 89.6809 214.456 87.2209 215.759 84.104C211.72 79.7802 212.398 75.6302 212.675 70.74C214.335 65.5208 214.043 62.5951 212.675 57.376C212.613 53.7502 213.189 46.582 215.759 43.498C218.329 40.414 220.804 37.844 220.804 37.844L223.422 32.19C226.44 26.3355 229.995 25.9151 236.833 22.424C239.262 23.2896 240.616 23.8087 243.515 22.424C247.589 20.7257 249.469 19.34 252.253 16.256C261.458 20.368 266.441 13.5986 266.598 19.854C267.626 21.2243 269.784 20.368 270.196 20.368C270.607 20.368 274.822 20.882 274.822 17.284C274.822 13.686 276.885 20.7792 275.336 22.424C278.192 23.7881 279.549 23.3039 281.913 22.461L282.018 22.424C288.856 25.9151 291.849 28.3915 294.868 34.246L298.466 39.386C298.466 39.386 297.968 44.5496 300.522 47.61C303.075 50.6703 299.494 59.432 304.634 53.778C305.662 58.918 302.459 65.0068 304.12 70.226C304.396 75.1162 302.578 78.964 303.606 85.132C302.578 88.73 301.521 86.0829 300.008 90.272C297.891 92.5963 298.98 93.87 296.41 97.468C292.319 102.593 293.326 99.524 290.756 103.122C290.756 103.122 283.56 108.262 284.588 106.206C285.616 104.15 287.158 102.094 287.158 102.094C288.487 98.2616 289.728 100.552 289.214 96.44C292.006 93.1864 288.248 95.9034 289.214 91.814C288.255 86.5948 289.549 88.8092 291.27 83.59C289.144 82.306 293.326 79.992 290.756 79.478C288.835 76.7024 288.499 74.5744 288.7 71.254C286.696 72.6757 279.606 73.8918 279.448 76.394Z" fill="black"/>
<path d="M367.39 229.312C366.819 225 370.174 221.171 374.524 221.171H401.636C405.987 221.171 409.342 225 408.771 229.312L404.275 263.236C403.801 266.814 400.75 269.487 397.141 269.487H379.019C375.41 269.487 372.36 266.814 371.886 263.236L367.39 229.312Z" fill="#FF3717"/>
<path d="M403.861 230.312C406.348 235.572 410.579 238.246 411.396 240.87L411.212 253.927L403.447 259.69" stroke="#FF3717" stroke-width="5.14"/>
<path d="M488.896 269H25.1043C22.8376 269 21 270.791 21 273V288C21 290.209 22.8376 292 25.1043 292H488.896C491.162 292 493 290.209 493 288V273C493 270.791 491.162 269 488.896 269Z" fill="#D9D9D9"/>
<path d="M467 292H46V374H467V292Z" fill="#D9D9D9"/>
<path d="M466.452 292H46V300.228H466.452V292Z" fill="#C2C2C2"/>
<path d="M336.842 166.687H182.642C179.235 166.687 176.474 169.448 176.474 172.855V258.179C176.474 261.585 179.235 264.347 182.642 264.347H336.842C340.248 264.347 343.01 261.585 343.01 258.179V172.855C343.01 169.448 340.248 166.687 336.842 166.687Z" fill="#080808"/>
<path d="M344.057 257.785H175.082C173.958 257.785 173.046 258.714 173.046 259.861V266.091C173.046 267.238 173.958 268.167 175.082 268.167H344.057C345.182 268.167 346.093 267.238 346.093 266.091V259.861C346.093 258.714 345.182 257.785 344.057 257.785Z" fill="#080808"/>
<path d="M252.165 224.783L243.292 220.839L252.165 216.878V219.034L246.551 220.759L252.165 222.563V224.783Z" fill="#FF3717"/>
<path d="M254.531 225.919C253.615 225.919 252.859 225.802 252.263 225.567C251.667 225.323 251.198 224.966 250.858 224.497C250.527 224.018 250.293 223.433 250.155 222.741C250.016 222.038 249.947 221.229 249.947 220.313C249.947 219.344 250.022 218.509 250.171 217.806C250.331 217.093 250.586 216.507 250.937 216.049C251.299 215.581 251.768 215.235 252.343 215.011C252.928 214.777 253.647 214.66 254.499 214.66C254.935 214.66 255.388 214.687 255.856 214.74C256.335 214.782 256.788 214.841 257.214 214.916C256.926 214.841 257.65 214.99 257.214 214.916L258.268 216.864C257.969 216.811 257.607 216.763 257.182 216.72C256.766 216.678 256.341 216.646 255.904 216.624C255.468 216.592 255.074 216.576 254.722 216.576C254.19 216.576 253.753 216.646 253.413 216.784C253.083 216.922 252.827 217.146 252.646 217.455C252.476 217.753 252.359 218.141 252.295 218.621C252.231 219.089 252.199 219.653 252.199 220.313C252.199 221.154 252.258 221.857 252.375 222.421C252.502 222.975 252.742 223.385 253.093 223.651C253.455 223.917 253.972 224.05 254.642 224.05C254.813 224.05 254.994 224.045 255.185 224.034C255.388 224.024 255.579 224.008 255.76 223.986C255.952 223.965 256.112 223.944 256.239 223.923V221.543H254.946V219.866H258.331V225.504C258.097 225.536 257.815 225.578 257.485 225.631C257.155 225.674 256.809 225.716 256.447 225.759C256.096 225.802 255.75 225.839 255.409 225.871C255.079 225.903 254.786 225.919 254.531 225.919Z" fill="#FF3717"/>
<path d="M262.029 225.246C261.678 225.246 261.3 225.225 260.895 225.182C260.501 225.15 260.129 225.108 259.778 225.055C259.437 225.001 259.144 224.948 258.899 224.895L259.889 223.426C259.549 223.383 260.166 223.458 259.889 223.426C260.241 223.468 260.581 223.506 260.911 223.537C261.252 223.559 261.529 223.569 261.742 223.569C262.061 223.569 262.322 223.543 262.524 223.49C262.737 223.436 262.897 223.351 263.003 223.234C263.11 223.106 263.163 222.925 263.163 222.691C263.163 222.51 263.115 222.372 263.019 222.276C262.934 222.18 262.764 222.1 262.508 222.036C262.264 221.962 261.902 221.887 261.422 221.813C260.826 221.728 260.331 221.605 259.937 221.445C259.554 221.286 259.272 221.051 259.091 220.743C258.91 220.423 258.819 219.992 258.819 219.449C258.819 218.789 258.963 218.273 259.251 217.9C259.538 217.527 259.921 217.267 260.4 217.118C260.879 216.958 261.401 216.878 261.965 216.878C262.338 216.878 262.721 216.899 263.115 216.942C263.509 216.974 263.882 217.016 264.233 217.07C263.999 217.016 264.584 217.123 264.233 217.07L265.048 218.842C264.781 218.8 264.473 218.762 264.121 218.731C263.77 218.688 263.419 218.656 263.067 218.635C262.727 218.613 262.439 218.603 262.205 218.603C261.96 218.603 261.742 218.629 261.55 218.683C261.359 218.725 261.209 218.8 261.103 218.906C261.007 219.013 260.959 219.172 260.959 219.385C260.959 219.534 261.002 219.657 261.087 219.753C261.172 219.848 261.332 219.934 261.566 220.008C261.811 220.072 262.162 220.136 262.62 220.2C263.28 220.296 263.807 220.429 264.201 220.599C264.595 220.769 264.877 221.014 265.048 221.334C265.229 221.653 265.319 222.084 265.319 222.627C265.319 223.596 265.032 224.277 264.457 224.671C263.892 225.055 263.083 225.246 262.029 225.246Z" fill="#FF3717"/>
<path d="M265.269 226.653L263.256 226.126L267.888 214.66L269.9 215.187L265.269 226.653Z" fill="#FF3717"/>
<path d="M267.692 224.783V222.563L272.451 220.759L267.692 219.034V216.878L275.172 220.759L267.692 224.783Z" fill="#FF3717"/>
</g>
<defs>
<clipPath id="clip0_103_7">
<rect width="514" height="374" fill="white"/>
</clipPath>
</defs>
</svg>
