<svg width="50" height="50" viewBox="0 0 50 50" fill="none" xmlns="http://www.w3.org/2000/svg">
<path d="M50 0H0V50H50V0Z" fill="#F05133"/>
<path d="M25 22.9167C25 32.8109 25 38.3664 25 39.5834C25 41.4088 23.9107 43.75 20.8333 43.75C15.8638 43.75 15.625 39.5834 15.625 39.5834M43.3124 28.1584C42.0623 26.0528 40.405 25 38.3407 25C35.1174 25 33.3333 27.0834 33.3333 29.1667C33.3333 31.25 34.375 33.3334 38.5592 34.375C41.2218 35.0379 43.75 36.4584 43.75 39.5834C43.75 42.7084 41.0095 43.75 38.5417 43.75C35.3878 43.75 33.3045 42.3611 32.2917 39.5834" stroke="#181A1B" stroke-width="3"/>
</svg>
