<svg width="70" height="34" viewBox="0 0 70 34" fill="none" xmlns="http://www.w3.org/2000/svg">
<path d="M10.5636 4.08093C10.2121 3.40403 9.72394 2.89635 9.09911 2.5579C8.47427 2.20644 7.75181 2.0307 6.93172 2.0307C6.03353 2.0307 5.23296 2.23247 4.53003 2.63601C3.82709 3.03954 3.27386 3.61231 2.87032 4.35429C2.4798 5.09628 2.28454 5.95542 2.28454 6.93172C2.28454 7.90802 2.4798 8.77367 2.87032 9.52868C3.27386 10.2707 3.82709 10.8434 4.53003 11.247C5.23296 11.6505 6.03353 11.8523 6.93172 11.8523C8.14233 11.8523 9.12514 11.5138 9.88015 10.8369C10.6351 10.16 11.0973 9.2423 11.2665 8.08375H6.17021V6.30689H13.6487V8.0447C13.5055 9.09911 13.128 10.0689 12.5162 10.9541C11.9174 11.8393 11.1298 12.5487 10.1535 13.0824C9.19023 13.6031 8.1163 13.8634 6.93172 13.8634C5.65602 13.8634 4.49097 13.5706 3.43657 12.9848C2.38217 12.386 1.54255 11.5594 0.917721 10.505C0.305907 9.45057 0 8.25949 0 6.93172C0 5.60396 0.305907 4.41287 0.917721 3.35847C1.54255 2.30407 2.38217 1.48397 3.43657 0.898195C4.50399 0.299398 5.66904 0 6.93172 0C8.37665 0 9.65885 0.357976 10.7783 1.07393C11.9108 1.77686 12.7309 2.7792 13.2386 4.08093H10.5636Z" fill="#FF3717"/>
<path d="M25.5876 2.98748V13.7463H23.3616V12.4771C23.0101 12.9197 22.548 13.2712 21.9753 13.5315C21.4155 13.7788 20.8167 13.9025 20.1789 13.9025C19.3328 13.9025 18.5712 13.7268 17.8943 13.3753C17.2305 13.0238 16.7033 12.5031 16.3127 11.8132C15.9352 11.1233 15.7465 10.2902 15.7465 9.31389V2.98748H17.9529V8.98195C17.9529 9.94523 18.1937 10.6872 18.6754 11.2079C19.157 11.7156 19.8144 11.9694 20.6475 11.9694C21.4806 11.9694 22.138 11.7156 22.6196 11.2079C23.1143 10.6872 23.3616 9.94523 23.3616 8.98195V2.98748H25.5876Z" fill="#FF3717"/>
<path d="M32.4298 13.922C31.5836 13.922 30.8221 13.7723 30.1452 13.4729C29.4813 13.1605 28.9541 12.744 28.5636 12.2233C28.1731 11.6896 27.9648 11.0973 27.9388 10.4464H30.2428C30.2819 10.902 30.4967 11.286 30.8872 11.5984C31.2907 11.8978 31.7919 12.0475 32.3907 12.0475C33.0155 12.0475 33.4972 11.9304 33.8356 11.6961C34.1871 11.4487 34.3628 11.1363 34.3628 10.7588C34.3628 10.3553 34.1676 10.0559 33.777 9.86062C33.3995 9.66536 32.7942 9.45057 31.9611 9.21626C31.1541 8.99497 30.4967 8.78018 29.989 8.57191C29.4813 8.36363 29.0387 8.0447 28.6612 7.61513C28.2968 7.18556 28.1145 6.61931 28.1145 5.91637C28.1145 5.34361 28.2837 4.82292 28.6222 4.35429C28.9606 3.87265 29.4423 3.49515 30.0671 3.22179C30.705 2.94842 31.4339 2.81174 32.254 2.81174C33.4776 2.81174 34.4605 3.12416 35.2024 3.74899C35.9574 4.3608 36.361 5.20042 36.4131 6.26784H34.1871C34.148 5.7862 33.9528 5.40219 33.6013 5.11581C33.2498 4.82943 32.7747 4.68624 32.1759 4.68624C31.5901 4.68624 31.141 4.79688 30.8286 5.01818C30.5162 5.23947 30.36 5.53236 30.36 5.89685C30.36 6.18323 30.4641 6.42405 30.6724 6.61931C30.8807 6.81457 31.1345 6.97077 31.4339 7.08793C31.7333 7.19207 32.1759 7.32875 32.7617 7.49798C33.5427 7.70625 34.1806 7.92104 34.6752 8.14233C35.1829 8.35061 35.619 8.66302 35.9835 9.07958C36.348 9.49613 36.5367 10.0494 36.5497 10.7393C36.5497 11.3511 36.3805 11.8978 36.0421 12.3795C35.7036 12.8611 35.222 13.2386 34.5971 13.512C33.9853 13.7853 33.2629 13.922 32.4298 13.922Z" fill="#FF3717"/>
<path d="M41.5519 4.80339V10.7588C41.5519 11.1624 41.643 11.4552 41.8253 11.6375C42.0205 11.8067 42.3459 11.8913 42.8016 11.8913H44.1684V13.7463H42.411C41.4087 13.7463 40.6407 13.512 40.107 13.0434C39.5733 12.5747 39.3064 11.8132 39.3064 10.7588V4.80339H38.0372V2.98748H39.3064V0.312416H41.5519V2.98748H44.1684V4.80339H41.5519Z" fill="#FF3717"/>
<path d="M45.478 8.31807C45.478 7.23763 45.6993 6.28086 46.1419 5.44775C46.5975 4.61464 47.2093 3.97028 47.9773 3.51468C48.7584 3.04605 49.6175 2.81174 50.5547 2.81174C51.4009 2.81174 52.1363 2.98097 52.7612 3.31942C53.399 3.64485 53.9067 4.0549 54.2842 4.54955V2.98748H56.5297V13.7463H54.2842V12.1452C53.9067 12.6528 53.3925 13.0759 52.7416 13.4143C52.0908 13.7528 51.3488 13.922 50.5157 13.922C49.5915 13.922 48.7453 13.6877 47.9773 13.2191C47.2093 12.7374 46.5975 12.0736 46.1419 11.2274C45.6993 10.3683 45.478 9.3985 45.478 8.31807ZM54.2842 8.35712C54.2842 7.61513 54.128 6.97077 53.8156 6.42405C53.5162 5.87732 53.1192 5.46077 52.6245 5.17438C52.1298 4.888 51.5961 4.74481 51.0234 4.74481C50.4506 4.74481 49.9169 4.888 49.4222 5.17438C48.9276 5.44775 48.524 5.85779 48.2116 6.40452C47.9122 6.93823 47.7625 7.57608 47.7625 8.31807C47.7625 9.06005 47.9122 9.71092 48.2116 10.2707C48.524 10.8304 48.9276 11.26 49.4222 11.5594C49.9299 11.8458 50.4636 11.989 51.0234 11.989C51.5961 11.989 52.1298 11.8458 52.6245 11.5594C53.1192 11.273 53.5162 10.8564 53.8156 10.3097C54.128 9.74997 54.2842 9.09911 54.2842 8.35712Z" fill="#FF3717"/>
<path d="M63.6124 11.7546L66.6585 2.98748H69.0211L64.9207 13.7463H62.2651L58.1842 2.98748H60.5664L63.6124 11.7546Z" fill="#FF3717"/>
<path d="M28.5241 33.4089C27.6129 33.4089 26.7928 33.2527 26.0638 32.9403C25.3349 32.6149 24.7621 32.1593 24.3455 31.5735C23.929 30.9877 23.7207 30.3043 23.7207 29.5233H26.1029C26.1549 30.1091 26.3827 30.5907 26.7863 30.9682C27.2028 31.3457 27.7821 31.5345 28.5241 31.5345C29.2921 31.5345 29.8909 31.3522 30.3205 30.9877C30.7501 30.6102 30.9648 30.1286 30.9648 29.5428C30.9648 29.0872 30.8282 28.7162 30.5548 28.4298C30.2945 28.1434 29.9625 27.9221 29.559 27.7659C29.1685 27.6097 28.6217 27.4405 27.9188 27.2583C27.0336 27.024 26.3112 26.7896 25.7514 26.5553C25.2047 26.308 24.7361 25.9305 24.3455 25.4228C23.955 24.9151 23.7598 24.2382 23.7598 23.3921C23.7598 22.6111 23.955 21.9277 24.3455 21.3419C24.7361 20.7561 25.2828 20.307 25.9857 19.9946C26.6887 19.6822 27.5022 19.526 28.4265 19.526C29.7412 19.526 30.8151 19.8579 31.6483 20.5218C32.4944 21.1727 32.963 22.0709 33.0541 23.2164H30.5939C30.5548 22.7217 30.3205 22.2987 29.8909 21.9472C29.4613 21.5957 28.8951 21.42 28.1922 21.42C27.5543 21.42 27.0336 21.5827 26.6301 21.9081C26.2265 22.2336 26.0248 22.7022 26.0248 23.314C26.0248 23.7306 26.1484 24.0755 26.3958 24.3489C26.6561 24.6092 26.9815 24.8175 27.3721 24.9737C27.7626 25.1299 28.2963 25.2992 28.9732 25.4814C29.8714 25.7287 30.6004 25.9761 31.1601 26.2234C31.7329 26.4707 32.2145 26.8547 32.605 27.3754C33.0086 27.8831 33.2103 28.5665 33.2103 29.4256C33.2103 30.1156 33.0216 30.7664 32.6441 31.3782C32.2796 31.9901 31.7394 32.4847 31.0234 32.8622C30.3205 33.2267 29.4874 33.4089 28.5241 33.4089Z" fill="#FF3717"/>
<path d="M35.0949 27.844C35.0949 26.7636 35.3162 25.8068 35.7588 24.9737C36.2144 24.1406 36.8262 23.4963 37.5942 23.0407C38.3753 22.572 39.2344 22.3377 40.1716 22.3377C41.0178 22.3377 41.7533 22.5069 42.3781 22.8454C43.0159 23.1708 43.5236 23.5809 43.9011 24.0755V22.5135H46.1466V33.2723H43.9011V31.6711C43.5236 32.1788 43.0094 32.6019 42.3586 32.9403C41.7077 33.2788 40.9657 33.448 40.1326 33.448C39.2084 33.448 38.3622 33.2137 37.5942 32.7451C36.8262 32.2634 36.2144 31.5995 35.7588 30.7534C35.3162 29.8943 35.0949 28.9245 35.0949 27.844ZM43.9011 27.8831C43.9011 27.1411 43.7449 26.4967 43.4325 25.95C43.1331 25.4033 42.7361 24.9867 42.2414 24.7004C41.7467 24.414 41.213 24.2708 40.6403 24.2708C40.0675 24.2708 39.5338 24.414 39.0391 24.7004C38.5445 24.9737 38.1409 25.3838 37.8285 25.9305C37.5291 26.4642 37.3794 27.1021 37.3794 27.844C37.3794 28.586 37.5291 29.2369 37.8285 29.7966C38.1409 30.3564 38.5445 30.786 39.0391 31.0854C39.5468 31.3717 40.0805 31.5149 40.6403 31.5149C41.213 31.5149 41.7467 31.3717 42.2414 31.0854C42.7361 30.799 43.1331 30.3824 43.4325 29.8357C43.7449 29.2759 43.9011 28.6251 43.9011 27.8831Z" fill="#FF3717"/>
<path d="M54.4985 22.3377C55.3447 22.3377 56.0997 22.5135 56.7635 22.8649C57.4404 23.2164 57.9676 23.7371 58.3451 24.427C58.7227 25.1169 58.9114 25.95 58.9114 26.9263V33.2723H56.705V27.2583C56.705 26.295 56.4641 25.5595 55.9825 25.0518C55.5009 24.5311 54.8435 24.2708 54.0104 24.2708C53.1773 24.2708 52.5134 24.5311 52.0187 25.0518C51.5371 25.5595 51.2963 26.295 51.2963 27.2583V33.2723H49.0703V22.5135H51.2963V23.7436C51.6608 23.301 52.1229 22.956 52.6826 22.7087C53.2554 22.4614 53.8607 22.3377 54.4985 22.3377Z" fill="#FF3717"/>
<path d="M64.3477 24.3294V30.2848C64.3477 30.6883 64.4388 30.9812 64.6211 31.1635C64.8163 31.3327 65.1418 31.4173 65.5974 31.4173H66.9642V33.2723H65.2069C64.2045 33.2723 63.4365 33.038 62.9028 32.5693C62.3691 32.1007 62.1022 31.3392 62.1022 30.2848V24.3294H60.833V22.5135H62.1022V19.8384H64.3477V22.5135H66.9642V24.3294H64.3477Z" fill="#FF3717"/>
</svg>
