<svg width="50" height="50" viewBox="0 0 50 50" fill="none" xmlns="http://www.w3.org/2000/svg">
<path d="M48.6667 25.0669C48.6667 30.5897 38.22 35.067 25.3333 35.067C12.4467 35.067 2 30.5897 2 25.0669C2 19.544 12.4467 15.0669 25.3333 15.0669C38.22 15.0669 48.6667 19.544 48.6667 25.0669Z" stroke="#F05133" stroke-width="2"/>
<path d="M14.2195 45.5837C19.0756 48.2144 27.988 41.161 34.1258 29.8299C40.2635 18.4989 41.3025 7.18079 36.4465 4.55029C31.5902 1.9198 22.6779 8.97302 16.5401 20.3041C10.4023 31.6352 9.3633 42.9534 14.2195 45.5837Z" stroke="#F05133" stroke-width="2"/>
<path d="M36.4467 45.5837C31.5905 48.2144 22.6781 41.161 16.5403 29.8299C10.4025 18.4989 9.36354 7.18079 14.2197 4.55029C19.0759 1.9198 27.9882 8.97302 34.126 20.3041C40.264 31.6352 41.3027 42.9534 36.4467 45.5837Z" stroke="#F05133" stroke-width="2"/>
<path d="M22 25.0669C22 26.9078 23.4924 28.4002 25.3333 28.4002C27.1743 28.4002 28.6667 26.9078 28.6667 25.0669C28.6667 23.2259 27.1743 21.7336 25.3333 21.7336C23.4924 21.7336 22 23.2259 22 25.0669Z" stroke="#F05133" stroke-width="2"/>
</svg>
