<svg width="50" height="50" viewBox="0 0 50 50" fill="none" xmlns="http://www.w3.org/2000/svg">
<path fill-rule="evenodd" clip-rule="evenodd" d="M25 3.125C29.3265 3.125 33.5558 4.40795 37.1531 6.8116C40.7504 9.21526 43.5542 12.6317 45.2099 16.6288C46.8655 20.6259 47.2987 25.0243 46.4547 29.2676C45.6106 33.5109 43.5272 37.4087 40.468 40.468C37.4087 43.5272 33.5109 45.6106 29.2676 46.4547C25.0243 47.2987 20.6259 46.8655 16.6288 45.2099C12.6317 43.5542 9.21526 40.7504 6.8116 37.1531C4.40795 33.5558 3.125 29.3265 3.125 25C3.125 19.1984 5.42968 13.6344 9.53204 9.53204C13.6344 5.42968 19.1984 3.125 25 3.125V3.125Z" fill="#F05133"/>
<path d="M38.722 12.4875C37.7314 8.60311 31.2892 7.33124 25.1923 9.49061C21.374 10.7737 17.8463 12.7972 14.8111 15.4453C11.4532 18.5859 10.9173 21.3203 11.1376 22.4625C11.9189 26.4937 17.4392 29.1281 19.7095 31.0828V31.0937C19.0407 31.4234 14.1407 33.9062 12.9907 36.4375C11.7814 39.1125 13.1829 41.0312 14.1126 41.2891C15.5084 41.6251 16.9744 41.5157 18.3049 40.9763C19.6354 40.4369 20.7637 39.4944 21.5314 38.2812C22.1658 37.2983 22.5628 36.1812 22.6908 35.0183C22.8188 33.8554 22.6743 32.6786 22.2689 31.5812C23.3624 31.3034 24.4991 31.2381 25.6173 31.3891C29.4548 31.8375 30.2079 34.2328 30.0642 35.2359C29.9966 35.593 29.8529 35.9313 29.6428 36.2279C29.4328 36.5245 29.1614 36.7724 28.847 36.9547C28.5782 37.1219 28.4954 37.1781 28.5189 37.3031C28.5517 37.4828 28.6751 37.4766 28.9048 37.4375C29.4815 37.2559 29.9896 36.9038 30.3623 36.4277C30.7349 35.9516 30.9546 35.3737 30.9923 34.7703C31.0845 32.4266 28.8329 29.7922 24.8454 29.8594C23.6873 29.8263 22.5316 29.9847 21.4251 30.3281C21.3704 30.2656 21.3142 30.2031 21.2564 30.1406C18.7907 27.5109 14.2345 25.65 14.4267 22.1141C14.497 20.8281 14.9439 17.4437 23.1767 13.3375C29.9267 9.97343 35.3298 10.9 36.2642 12.9515C37.5986 15.8828 33.3767 21.3281 26.3673 22.1141C25.5926 22.2713 24.7924 22.2521 24.0261 22.0579C23.2598 21.8637 22.547 21.4995 21.9407 20.9922C21.572 20.5859 21.5173 20.5687 21.3798 20.6437C21.1564 20.7672 21.2986 21.1266 21.3798 21.3391C21.6482 21.8228 22.0105 22.248 22.4454 22.5898C22.8804 22.9317 23.3792 23.1832 23.9126 23.3297C26.6685 23.9285 29.543 23.6442 32.1282 22.5172C36.3798 20.8781 39.6954 16.3078 38.722 12.4875ZM20.6532 32.2859C20.9636 33.3558 20.9478 34.4939 20.6079 35.5547C20.5715 35.6651 20.5314 35.7745 20.4876 35.8828C20.4439 35.9911 20.3965 36.0953 20.3454 36.1953C20.0825 36.7333 19.7418 37.2298 19.3345 37.6687C18.0642 39.0547 16.2876 39.5797 15.5267 39.1375C14.7048 38.6609 15.1157 36.7062 16.5892 35.1484C17.7213 34.0289 19.0266 33.0992 20.4548 32.3953V32.3953L20.6532 32.2859Z" fill="#181A1B"/>
</svg>
