<svg width="84" height="84" viewBox="0 0 84 84" fill="none" xmlns="http://www.w3.org/2000/svg">
<path fill-rule="evenodd" clip-rule="evenodd" d="M41.9167 0.416626C18.988 0.416626 0.416748 19.4576 0.416748 42.9663C0.416748 61.7946 12.2961 77.6975 28.7924 83.3353C30.8674 83.7077 31.6455 82.4312 31.6455 81.3142C31.6455 80.3037 31.5936 76.9529 31.5936 73.3894C21.1667 75.3573 18.4692 70.7832 17.6392 68.3898C17.1724 67.1665 15.1492 63.3902 13.3855 62.3796C11.933 61.5818 9.858 59.6139 13.3336 59.5607C16.6017 59.5075 18.9361 62.6456 19.7142 63.922C23.4492 70.3577 29.4149 68.5493 31.8011 67.4324C32.1642 64.6667 33.2536 62.8051 34.4467 61.7414C25.213 60.6776 15.5642 57.0077 15.5642 40.7325C15.5642 36.1052 17.1724 32.2757 19.818 29.2972C19.403 28.2335 17.9505 23.8721 20.233 18.0216C20.233 18.0216 23.7086 16.9046 31.6455 22.3829C34.9655 21.4255 38.493 20.9469 42.0205 20.9469C45.548 20.9469 49.0755 21.4255 52.3955 22.3829C60.3324 16.8514 63.808 18.0216 63.808 18.0216C66.0905 23.8721 64.638 28.2335 64.223 29.2972C66.8686 32.2757 68.4767 36.052 68.4767 40.7325C68.4767 57.0609 58.7761 60.6776 49.5424 61.7414C51.0467 63.0711 52.3436 65.624 52.3436 69.6131C52.3436 75.3041 52.2917 79.8782 52.2917 81.3142C52.2917 82.4312 53.0699 83.7608 55.1449 83.3353C71.5374 77.6975 83.4167 61.7414 83.4167 42.9663C83.4167 19.4576 64.8455 0.416626 41.9167 0.416626Z" fill="#FF3717"/>
</svg>
